<svg xmlns="http://www.w3.org/2000/svg" viewBox="0 0 1120 250"><rect x="4" y="4" width="1112" height="242" rx="24" fill="#071019" stroke="#37e8ff" stroke-opacity=".18"/><text x="34" y="42" fill="#fff" font-family="Inter,Segoe UI,Arial" font-size="19" font-weight="800">ESTADÍSTICAS / NO OFICIALES PERO BASTANTE PRECISAS</text><text x="34" y="66" fill="#6f879c" font-family="monospace" font-size="12">telemetría del caos humano</text><g font-family="Inter,Segoe UI,Arial" font-size="13"><text x="38" y="106" fill="#a9bbcb">Ideas repentinas</text><rect x="185" y="96" width="260" height="9" rx="4.5" fill="#132432"/><rect x="185" y="96" width="260" height="9" rx="4.5" fill="#37e8ff"/><text x="463" y="105" fill="#37e8ff">∞</text><text x="570" y="106" fill="#a9bbcb">Curiosidad</text><rect x="690" y="96" width="260" height="9" rx="4.5" fill="#132432"/><rect x="690" y="96" width="260" height="9" rx="4.5" fill="#00bfd7"/><text x="968" y="105" fill="#37e8ff">100%</text><text x="38" y="154" fill="#a9bbcb">Solo un cambio</text><rect x="185" y="144" width="260" height="9" rx="4.5" fill="#132432"/><rect x="185" y="144" width="260" height="9" rx="4.5" fill="#37e8ff"/><text x="463" y="153" fill="#37e8ff">100%</text><text x="570" y="154" fill="#a9bbcb">Dormir temprano</text><rect x="690" y="144" width="260" height="9" rx="4.5" fill="#132432"/><rect x="690" y="144" width="52" height="9" rx="4.5" fill="#0fa5b8"/><text x="968" y="153" fill="#37e8ff">17%</text><text x="38" y="202" fill="#a9bbcb">Ganas de aprender</text><rect x="185" y="192" width="260" height="9" rx="4.5" fill="#132432"/><rect x="185" y="192" width="260" height="9" rx="4.5" fill="#37e8ff"/><text x="463" y="201" fill="#37e8ff">∞</text><text x="570" y="202" fill="#a9bbcb">Bugs → experiencia</text><rect x="835" y="192" width="115" height="9" rx="4.5" fill="#132432"/><rect x="835" y="192" width="115" height="9" rx="4.5" fill="#00bfd7"/><text x="968" y="201" fill="#37e8ff">100%</text></g></svg>
